<svg xmlns="http://www.w3.org/2000/svg" viewBox="0 0 64 64"><defs><linearGradient id="cf" x1="0" y1="0" x2=".3" y2="1"><stop offset="0" stop-color="#bcd6ff"/><stop offset=".45" stop-color="#4f7fff"/><stop offset="1" stop-color="#1f3bb0"/></linearGradient></defs><circle cx="32" cy="34" r="20.5" fill="none" stroke="#0b2e18" stroke-width="7.4"/><circle cx="32" cy="34" r="20.5" fill="none" stroke="#1f6b36" stroke-width="4.6"/><circle cx="32" cy="34" r="21.9" fill="none" stroke="#49a862" stroke-width="1.8" stroke-dasharray="6 10" opacity=".85"/><path d="M20 50c-4 4-5 8-4 11 3-1 6-4 8-8" fill="#ffd44a" stroke="#8a5a02" stroke-width="1.6" stroke-linejoin="round"/><path d="M26 53c-2 5-2 8-1 10 3-2 4-5 5-9" fill="#ffb23d" stroke="#8a5a02" stroke-width="1.6" stroke-linejoin="round"/><ellipse cx="35.9" cy="15.1" rx="3.7" ry="2.7" fill="url(#cf)" stroke="#0f2a63" stroke-width="1.5" transform="rotate(22.9 35.9 15.1)"/><ellipse cx="32.5" cy="17.7" rx="3.7" ry="2.7" fill="url(#cf)" stroke="#0f2a63" stroke-width="1.5" transform="rotate(82.9 32.5 17.7)"/><ellipse cx="28.6" cy="16" rx="3.7" ry="2.7" fill="url(#cf)" stroke="#0f2a63" stroke-width="1.5" transform="rotate(142.9 28.6 16)"/><ellipse cx="28.1" cy="11.9" rx="3.7" ry="2.7" fill="url(#cf)" stroke="#0f2a63" stroke-width="1.5" transform="rotate(202.9 28.1 11.9)"/><ellipse cx="31.5" cy="9.3" rx="3.7" ry="2.7" fill="url(#cf)" stroke="#0f2a63" stroke-width="1.5" transform="rotate(262.9 31.5 9.3)"/><ellipse cx="35.4" cy="11" rx="3.7" ry="2.7" fill="url(#cf)" stroke="#0f2a63" stroke-width="1.5" transform="rotate(322.9 35.4 11)"/><circle cx="32" cy="13.5" r="2.4" fill="#12306e" stroke="#0f2a63" stroke-width="1"/><circle cx="31.3" cy="12.8" r="1.1" fill="#9ec2ff" opacity=".9"/><ellipse cx="53.3" cy="25.3" rx="3.4" ry="2.5" fill="url(#cf)" stroke="#0f2a63" stroke-width="1.5" transform="rotate(22.9 53.3 25.3)"/><ellipse cx="50.2" cy="27.6" rx="3.4" ry="2.5" fill="url(#cf)" stroke="#0f2a63" stroke-width="1.5" transform="rotate(82.9 50.2 27.6)"/><ellipse cx="46.7" cy="26.1" rx="3.4" ry="2.5" fill="url(#cf)" stroke="#0f2a63" stroke-width="1.5" transform="rotate(142.9 46.7 26.1)"/><ellipse cx="46.2" cy="22.2" rx="3.4" ry="2.5" fill="url(#cf)" stroke="#0f2a63" stroke-width="1.5" transform="rotate(202.9 46.2 22.2)"/><ellipse cx="49.3" cy="19.9" rx="3.4" ry="2.5" fill="url(#cf)" stroke="#0f2a63" stroke-width="1.5" transform="rotate(262.9 49.3 19.9)"/><ellipse cx="52.8" cy="21.4" rx="3.4" ry="2.5" fill="url(#cf)" stroke="#0f2a63" stroke-width="1.5" transform="rotate(322.9 52.8 21.4)"/><circle cx="49.8" cy="23.8" r="2.2" fill="#12306e" stroke="#0f2a63" stroke-width="1"/><circle cx="49.1" cy="23.1" r="1" fill="#9ec2ff" opacity=".9"/><ellipse cx="53.6" cy="45.9" rx="3.7" ry="2.7" fill="url(#cf)" stroke="#0f2a63" stroke-width="1.5" transform="rotate(22.9 53.6 45.9)"/><ellipse cx="50.3" cy="48.4" rx="3.7" ry="2.7" fill="url(#cf)" stroke="#0f2a63" stroke-width="1.5" transform="rotate(82.9 50.3 48.4)"/><ellipse cx="46.4" cy="46.8" rx="3.7" ry="2.7" fill="url(#cf)" stroke="#0f2a63" stroke-width="1.5" transform="rotate(142.9 46.4 46.8)"/><ellipse cx="45.9" cy="42.6" rx="3.7" ry="2.7" fill="url(#cf)" stroke="#0f2a63" stroke-width="1.5" transform="rotate(202.9 45.9 42.6)"/><ellipse cx="49.2" cy="40.1" rx="3.7" ry="2.7" fill="url(#cf)" stroke="#0f2a63" stroke-width="1.5" transform="rotate(262.9 49.2 40.1)"/><ellipse cx="53.1" cy="41.7" rx="3.7" ry="2.7" fill="url(#cf)" stroke="#0f2a63" stroke-width="1.5" transform="rotate(322.9 53.1 41.7)"/><circle cx="49.8" cy="44.3" r="2.4" fill="#12306e" stroke="#0f2a63" stroke-width="1"/><circle cx="49.1" cy="43.5" r="1.1" fill="#9ec2ff" opacity=".9"/><ellipse cx="36" cy="55.9" rx="3.1" ry="2.3" fill="url(#cf)" stroke="#0f2a63" stroke-width="1.5" transform="rotate(22.9 36 55.9)"/><ellipse cx="33.2" cy="58" rx="3.1" ry="2.3" fill="url(#cf)" stroke="#0f2a63" stroke-width="1.5" transform="rotate(82.9 33.2 58)"/><ellipse cx="29.9" cy="56.6" rx="3.1" ry="2.3" fill="url(#cf)" stroke="#0f2a63" stroke-width="1.5" transform="rotate(142.9 29.9 56.6)"/><ellipse cx="29.4" cy="53.1" rx="3.1" ry="2.3" fill="url(#cf)" stroke="#0f2a63" stroke-width="1.5" transform="rotate(202.9 29.4 53.1)"/><ellipse cx="32.3" cy="50.9" rx="3.1" ry="2.3" fill="url(#cf)" stroke="#0f2a63" stroke-width="1.5" transform="rotate(262.9 32.3 50.9)"/><ellipse cx="35.6" cy="52.3" rx="3.1" ry="2.3" fill="url(#cf)" stroke="#0f2a63" stroke-width="1.5" transform="rotate(322.9 35.6 52.3)"/><circle cx="32.7" cy="54.5" r="2" fill="#12306e" stroke="#0f2a63" stroke-width="1"/><circle cx="32.1" cy="53.9" r="0.9" fill="#9ec2ff" opacity=".9"/><ellipse cx="17.8" cy="45.8" rx="3.4" ry="2.5" fill="url(#cf)" stroke="#0f2a63" stroke-width="1.5" transform="rotate(22.9 17.8 45.8)"/><ellipse cx="14.7" cy="48.1" rx="3.4" ry="2.5" fill="url(#cf)" stroke="#0f2a63" stroke-width="1.5" transform="rotate(82.9 14.7 48.1)"/><ellipse cx="11.2" cy="46.6" rx="3.4" ry="2.5" fill="url(#cf)" stroke="#0f2a63" stroke-width="1.5" transform="rotate(142.9 11.2 46.6)"/><ellipse cx="10.7" cy="42.7" rx="3.4" ry="2.5" fill="url(#cf)" stroke="#0f2a63" stroke-width="1.5" transform="rotate(202.9 10.7 42.7)"/><ellipse cx="13.8" cy="40.4" rx="3.4" ry="2.5" fill="url(#cf)" stroke="#0f2a63" stroke-width="1.5" transform="rotate(262.9 13.8 40.4)"/><ellipse cx="17.3" cy="41.9" rx="3.4" ry="2.5" fill="url(#cf)" stroke="#0f2a63" stroke-width="1.5" transform="rotate(322.9 17.3 41.9)"/><circle cx="14.2" cy="44.3" r="2.2" fill="#12306e" stroke="#0f2a63" stroke-width="1"/><circle cx="13.6" cy="43.6" r="1" fill="#9ec2ff" opacity=".9"/><ellipse cx="18.1" cy="25.4" rx="3.7" ry="2.7" fill="url(#cf)" stroke="#0f2a63" stroke-width="1.5" transform="rotate(22.9 18.1 25.4)"/><ellipse cx="14.8" cy="27.9" rx="3.7" ry="2.7" fill="url(#cf)" stroke="#0f2a63" stroke-width="1.5" transform="rotate(82.9 14.8 27.9)"/><ellipse cx="10.9" cy="26.3" rx="3.7" ry="2.7" fill="url(#cf)" stroke="#0f2a63" stroke-width="1.5" transform="rotate(142.9 10.9 26.3)"/><ellipse cx="10.4" cy="22.1" rx="3.7" ry="2.7" fill="url(#cf)" stroke="#0f2a63" stroke-width="1.5" transform="rotate(202.9 10.4 22.1)"/><ellipse cx="13.7" cy="19.6" rx="3.7" ry="2.7" fill="url(#cf)" stroke="#0f2a63" stroke-width="1.5" transform="rotate(262.9 13.7 19.6)"/><ellipse cx="17.6" cy="21.2" rx="3.7" ry="2.7" fill="url(#cf)" stroke="#0f2a63" stroke-width="1.5" transform="rotate(322.9 17.6 21.2)"/><circle cx="14.2" cy="23.8" r="2.4" fill="#12306e" stroke="#0f2a63" stroke-width="1"/><circle cx="13.5" cy="23.1" r="1.1" fill="#9ec2ff" opacity=".9"/></svg>
