<svg xmlns="http://www.w3.org/2000/svg" viewBox="0 0 64 64"><defs><linearGradient id="fl" x1="0" y1="0" x2=".4" y2="1"><stop offset="0" stop-color="#9dffb0"/><stop offset="1" stop-color="#35bf68"/></linearGradient><linearGradient id="fd" x1="0" y1="0" x2=".4" y2="1"><stop offset="0" stop-color="#4fd485"/><stop offset="1" stop-color="#1d7d48"/></linearGradient></defs><g stroke="#0a3b22" stroke-width="1.5" stroke-linejoin="round"><path d="M27.7 53.3Q21.3 43.4 9.8 45.8Q16.2 55.6 27.7 53.3Z" fill="url(#fl)"/><path d="M27.7 53.3Q39.3 54.9 45.1 44.6Q33.5 43 27.7 53.3Z" fill="url(#fd)"/><path d="M27.6 47.5Q22.1 38.1 11.3 39.9Q16.9 49.2 27.6 47.5Z" fill="url(#fl)"/><path d="M27.6 47.5Q38.4 49.4 44.1 40.1Q33.4 38.2 27.6 47.5Z" fill="url(#fd)"/><path d="M27.8 41.9Q23 33 13 34.2Q17.8 43.1 27.8 41.9Z" fill="url(#fl)"/><path d="M27.8 41.9Q37.6 44 43.3 35.7Q33.4 33.5 27.8 41.9Z" fill="url(#fd)"/><path d="M28.2 36.4Q24.2 28.1 15.1 28.8Q19.1 37.1 28.2 36.4Z" fill="url(#fl)"/><path d="M28.2 36.4Q37 38.7 42.5 31.4Q33.7 29 28.2 36.4Z" fill="url(#fd)"/><path d="M28.8 31Q25.6 23.4 17.3 23.7Q20.6 31.2 28.8 31Z" fill="url(#fl)"/><path d="M28.8 31Q36.7 33.5 41.9 27.1Q34 24.6 28.8 31Z" fill="url(#fd)"/><path d="M29.7 25.7Q27.1 18.9 19.9 18.8Q22.4 25.6 29.7 25.7Z" fill="url(#fl)"/><path d="M29.7 25.7Q36.5 28.2 41.3 22.8Q34.5 20.3 29.7 25.7Z" fill="url(#fd)"/><path d="M30.8 20.6Q28.9 14.7 22.7 14.3Q24.6 20.2 30.8 20.6Z" fill="url(#fl)"/><path d="M30.8 20.6Q36.5 23 40.8 18.6Q35.1 16.2 30.8 20.6Z" fill="url(#fd)"/><path d="M32.1 15.6Q30.8 10.7 25.8 10.2Q27.1 15 32.1 15.6Z" fill="url(#fl)"/><path d="M32.1 15.6Q36.6 17.8 40.3 14.4Q35.8 12.2 32.1 15.6Z" fill="url(#fd)"/><path d="M33.6 10.7Q32.8 7.1 29.2 6.5Q30 10.1 33.6 10.7Z" fill="url(#fl)"/><path d="M33.6 10.7Q36.9 12.5 39.7 10.1Q36.5 8.4 33.6 10.7Z" fill="url(#fd)"/></g><path d="M28 59Q26 30 35 7" fill="none" stroke="#0a3b22" stroke-width="4.4" stroke-linecap="round"/><path d="M28 59Q26 30 35 7" fill="none" stroke="#5fd487" stroke-width="2" stroke-linecap="round"/></svg>
